<svg id="Layer_1" data-name="Layer 1" xmlns="http://www.w3.org/2000/svg" viewBox="0 0 100 100"><defs><style>.cls-1{fill:#fbc398;}</style></defs><title>Artboard 7</title><path class="cls-1" d="M50,56.23c-11.08,0-18.47,3-19.68,5.4,2.81.35,5.81.63,9,.82,1.16-1.33,5.52-2.32,10.72-2.32s9.56,1,10.72,2.32c3.15-.19,6.15-.47,9-.82C68.47,59.22,61.08,56.23,50,56.23Z"/><path class="cls-1" d="M63.09,43.65a13.14,13.14,0,0,0-26.18,0C20.13,44.93,8,48.62,8,53c0,3.57,8.2,6.7,20.45,8.42,1.25-3.94,10.42-7,21.55-7s20.3,3.05,21.55,7C83.8,59.67,92,56.54,92,53,92,48.62,79.87,44.93,63.09,43.65Z"/></svg>