<svg id="Layer_1" data-name="Layer 1" xmlns="http://www.w3.org/2000/svg" xmlns:xlink="http://www.w3.org/1999/xlink" viewBox="0 0 100 100"><defs><style>.cls-1{fill:url(#linear-gradient);}.cls-2{fill:url(#linear-gradient-2);}</style><linearGradient id="linear-gradient" x1="55.29" y1="71.87" x2="44.39" y2="53" gradientUnits="userSpaceOnUse"><stop offset="0" stop-color="#fff"/><stop offset="0.02" stop-color="#fff4ff"/><stop offset="0.14" stop-color="#ffbcff"/><stop offset="0.25" stop-color="#ff8aff"/><stop offset="0.37" stop-color="#ff5fff"/><stop offset="0.49" stop-color="#ff3dff"/><stop offset="0.61" stop-color="#f2f"/><stop offset="0.74" stop-color="#ff0fff"/><stop offset="0.87" stop-color="#ff04ff"/><stop offset="1" stop-color="#f0f"/></linearGradient><linearGradient id="linear-gradient-2" x1="62.17" y1="74.49" x2="37.83" y2="32.33" xlink:href="#linear-gradient"/></defs><title>Artboard 7</title><path class="cls-1" d="M50,56.91c-11.9,0-19.85,3.22-21.15,5.81,3,.37,6.25.67,9.64.88,1.24-1.43,5.92-2.49,11.51-2.49s10.27,1.06,11.51,2.49c3.39-.21,6.61-.51,9.64-.88C69.85,60.13,61.9,56.91,50,56.91Z"/><path class="cls-2" d="M64.06,43.39a14.11,14.11,0,0,0-28.12,0c-18,1.38-31.06,5.35-31.06,10,0,3.84,8.81,7.2,22,9C28.19,58.23,38,55,50,55s21.81,3.28,23.15,7.5c13.16-1.84,22-5.2,22-9C95.12,48.74,82.09,44.77,64.06,43.39Z"/></svg>