<?xml version="1.0" encoding="utf-8"?>
<!-- Generator: Adobe Illustrator 22.1.0, SVG Export Plug-In . SVG Version: 6.00 Build 0)  -->
<svg version="1.1" id="Layer_1" xmlns="http://www.w3.org/2000/svg" xmlns:xlink="http://www.w3.org/1999/xlink" x="0px" y="0px"
	 viewBox="0 0 315 315" style="enable-background:new 0 0 315 315;" xml:space="preserve">
<style type="text/css">
	.st0{fill:#FFFFFF;stroke:#000000;stroke-width:13.3333;stroke-miterlimit:10;}
	.st1{fill:url(#SVGID_1_);}
	.st2{fill:url(#SVGID_2_);}
	.st3{fill:url(#SVGID_3_);}
	.st4{fill:url(#SVGID_4_);}
</style>
<title>Artboard 12flavicon</title>
<circle class="st0" cx="157.5" cy="157.5" r="150"/>
<g>
	<linearGradient id="SVGID_1_" gradientUnits="userSpaceOnUse" x1="87.5561" y1="335.183" x2="308.9742" y2="63.6824">
		<stop  offset="0" style="stop-color:#ED0C38"/>
		<stop  offset="0.7802" style="stop-color:#EA0872"/>
		<stop  offset="1" style="stop-color:#E90783"/>
	</linearGradient>
	<path class="st1" d="M159,271c10-1,17.7-8.9,18.6-18.8c0.1-0.7,0.1-1.3,0.1-2c0-11.5-9.4-20.9-20.9-20.9
		c-11.5,0-20.9,9.4-20.9,20.9c0,10.8,8,19.7,18.7,20.8c0,0,0.1,0,0.1,0l0.4,0c0.6,0,1.1,0.1,1.7,0.1c0.7,0,1.4,0,2-0.1L159,271z"/>
	<linearGradient id="SVGID_2_" gradientUnits="userSpaceOnUse" x1="58.6535" y1="311.6119" x2="280.0715" y2="40.1113">
		<stop  offset="0" style="stop-color:#ED0C38"/>
		<stop  offset="0.7802" style="stop-color:#EA0872"/>
		<stop  offset="1" style="stop-color:#E90783"/>
	</linearGradient>
	<path class="st2" d="M82.8,256.9c-1-1.9-1.9-3.9-2.7-5.8c-0.1-0.2-0.2-0.4-0.3-0.6c-0.9-2.1-1.6-4.3-2.3-6.5
		c-0.2-0.5-0.3-1-0.5-1.6c-0.6-2.1-1.2-4.3-1.6-6.4c0-0.2-0.1-0.3-0.1-0.5c-0.4-2.3-0.8-4.6-1-7c-0.1-0.6-0.1-1.2-0.2-1.7
		c-0.2-2.4-0.4-4.8-0.4-7.3c0-46.1,37.5-83.7,83.7-83.7c46.1,0,83.7,37.5,83.7,83.7c0,2.4-0.1,4.9-0.4,7.3c-0.1,0.6-0.1,1.2-0.2,1.7
		c-0.3,2.4-0.6,4.7-1,7c0,0.2-0.1,0.3-0.1,0.5c-0.4,2.2-1,4.3-1.6,6.4c-0.2,0.5-0.3,1.1-0.5,1.6c-0.7,2.2-1.4,4.4-2.3,6.5
		c-0.1,0.2-0.2,0.5-0.3,0.7c-0.8,1.9-1.7,3.8-2.6,5.7c-0.2,0.5-0.5,1-0.7,1.4c-0.2,0.3-0.3,0.7-0.5,1c0.2-0.2,0.4-0.4,0.5-0.6
		c0.5-0.6,1-1.1,1.5-1.7c0.5-0.6,1.1-1.2,1.6-1.9c0.5-0.6,1-1.2,1.4-1.8c0.5-0.6,1-1.3,1.5-2c0.5-0.6,0.9-1.2,1.4-1.8
		c0.5-0.7,1-1.3,1.4-2c0.4-0.6,0.9-1.3,1.3-1.9c0.5-0.7,0.9-1.4,1.3-2.1c0.4-0.6,0.8-1.3,1.2-2c0.4-0.7,0.8-1.4,1.2-2.1
		c0.4-0.7,0.8-1.3,1.1-2c0.4-0.7,0.8-1.5,1.1-2.2c0.3-0.7,0.7-1.4,1-2.1c0.4-0.7,0.7-1.5,1-2.3c0.3-0.7,0.6-1.4,0.9-2.1
		c0.3-0.8,0.6-1.5,0.9-2.3c0.3-0.7,0.6-1.4,0.8-2.2c0.3-0.8,0.5-1.6,0.8-2.4c0.2-0.7,0.5-1.5,0.7-2.2c0.2-0.8,0.5-1.6,0.7-2.5
		c0.2-0.7,0.4-1.5,0.6-2.2c0.2-0.9,0.4-1.7,0.6-2.6c0.2-0.7,0.3-1.5,0.5-2.2c0.2-0.9,0.3-1.8,0.5-2.7c0.1-0.7,0.3-1.4,0.4-2.1
		c0.1-1,0.3-1.9,0.4-2.9c0.1-0.7,0.2-1.3,0.2-2c0.1-1.1,0.2-2.2,0.3-3.3c0-0.6,0.1-1.1,0.1-1.7c0.1-1.7,0.1-3.4,0.1-5.1
		c0-55.6-45.2-100.8-100.8-100.8c-55.6,0-100.8,45.2-100.8,100.8c0,1.7,0,3.4,0.1,5.1c0,0.6,0.1,1.1,0.1,1.7
		c0.1,1.1,0.1,2.2,0.3,3.4c0.1,0.7,0.2,1.3,0.2,2c0.1,1,0.2,2,0.4,3c0.1,0.7,0.2,1.4,0.4,2.1c0.2,0.9,0.3,1.9,0.5,2.8
		c0.1,0.7,0.3,1.4,0.5,2.1c0.2,0.9,0.4,1.8,0.6,2.7c0.2,0.7,0.4,1.4,0.6,2.1c0.2,0.9,0.5,1.7,0.7,2.6c0.2,0.7,0.4,1.4,0.7,2.1
		c0.3,0.8,0.6,1.7,0.8,2.5c0.3,0.7,0.5,1.4,0.8,2.1c0.3,0.8,0.6,1.6,1,2.4c0.3,0.7,0.6,1.4,0.9,2c0.3,0.8,0.7,1.6,1.1,2.3
		c0.3,0.7,0.7,1.3,1,2c0.4,0.8,0.8,1.5,1.2,2.3c0.4,0.7,0.7,1.3,1.1,2c0.4,0.7,0.8,1.5,1.3,2.2c0.4,0.6,0.8,1.3,1.2,1.9
		c0.4,0.7,0.9,1.4,1.4,2.1c0.4,0.6,0.8,1.3,1.3,1.9c0.5,0.7,1,1.4,1.4,2c0.4,0.6,0.9,1.2,1.4,1.8c0.5,0.7,1,1.3,1.5,2
		c0.5,0.6,0.9,1.2,1.4,1.8c0.5,0.6,1.1,1.3,1.6,1.9c0.5,0.6,1,1.1,1.5,1.7c0.2,0.2,0.3,0.4,0.5,0.5c-0.2-0.4-0.4-0.7-0.6-1.1
		C83.2,257.8,83,257.4,82.8,256.9z"/>
	<linearGradient id="SVGID_3_" gradientUnits="userSpaceOnUse" x1="44.4612" y1="300.0376" x2="265.8792" y2="28.537">
		<stop  offset="0" style="stop-color:#ED0C38"/>
		<stop  offset="0.7802" style="stop-color:#EA0872"/>
		<stop  offset="1" style="stop-color:#E90783"/>
	</linearGradient>
	<path class="st3" d="M56.5,240.3c-0.9-1.8-1.8-3.7-2.6-5.6c-0.1-0.1-0.1-0.2-0.2-0.4c-0.9-2-1.6-4.1-2.4-6.2
		c-0.2-0.6-0.4-1.2-0.6-1.8c-0.5-1.6-1-3.1-1.5-4.7c-0.2-0.6-0.4-1.3-0.5-1.9c-0.6-2.1-1.1-4.2-1.5-6.3c0-0.1,0-0.2-0.1-0.2
		c-0.5-2.2-0.8-4.4-1.1-6.7c-0.1-0.7-0.2-1.3-0.3-2c-0.2-1.7-0.4-3.4-0.5-5.1c-0.1-0.7-0.1-1.4-0.2-2c-0.1-2.3-0.2-4.6-0.2-7
		c0-62.1,50.6-112.7,112.7-112.7c62.1,0,112.7,50.6,112.7,112.7c0,2.3-0.1,4.7-0.2,7c0,0.7-0.1,1.4-0.2,2c-0.1,1.7-0.3,3.4-0.5,5.1
		c-0.1,0.7-0.2,1.3-0.3,2c-0.3,2.2-0.7,4.5-1.1,6.7c0,0.1,0,0.1,0,0.2c-0.4,2.1-1,4.2-1.5,6.3c-0.2,0.6-0.4,1.3-0.5,1.9
		c-0.5,1.6-0.9,3.2-1.5,4.7c-0.2,0.6-0.4,1.2-0.6,1.8c-0.7,2.1-1.5,4.1-2.4,6.1c-0.1,0.1-0.1,0.3-0.2,0.4c-0.8,1.9-1.7,3.7-2.6,5.6
		c-0.3,0.6-0.6,1.2-0.9,1.8c-0.7,1.4-1.5,2.9-2.3,4.3c-0.2,0.4-0.4,0.7-0.6,1.1c20.3-22.9,32.6-53,32.6-86
		c0-71.6-58.2-129.8-129.8-129.8c-71.6,0-129.8,58.2-129.8,129.8c0,32.9,12.3,63.1,32.6,86c-0.2-0.3-0.4-0.7-0.6-1.1
		c-0.8-1.4-1.6-2.8-2.3-4.3C57.1,241.5,56.8,240.9,56.5,240.3z"/>
	<linearGradient id="SVGID_4_" gradientUnits="userSpaceOnUse" x1="72.819" y1="323.1644" x2="294.237" y2="51.6637">
		<stop  offset="0" style="stop-color:#ED0C38"/>
		<stop  offset="0.7802" style="stop-color:#EA0872"/>
		<stop  offset="1" style="stop-color:#E90783"/>
	</linearGradient>
	<path class="st4" d="M106,266.9c-0.3-0.7-0.5-1.4-0.7-2.2c-0.3-1-0.6-2.1-0.9-3.2c-0.2-0.7-0.4-1.4-0.5-2.1
		c-0.2-1.2-0.4-2.4-0.6-3.7c-0.1-0.6-0.2-1.2-0.3-1.8c-0.2-1.8-0.3-3.7-0.3-5.6c0-30.2,24.5-54.7,54.7-54.7
		c30.2,0,54.7,24.5,54.7,54.7c0,1.9-0.1,3.8-0.3,5.6c-0.1,0.6-0.2,1.2-0.3,1.8c-0.2,1.2-0.3,2.5-0.6,3.7c-0.1,0.7-0.3,1.4-0.5,2
		c-0.3,1.1-0.6,2.2-0.9,3.2c-0.2,0.7-0.5,1.4-0.7,2.1c-0.4,1-0.8,2-1.2,3c-0.1,0.3-0.2,0.6-0.3,0.9c0.4-0.4,0.9-0.8,1.3-1.3
		c0.7-0.7,1.4-1.4,2-2.2c0.8-0.9,1.7-1.9,2.4-2.8c0.7-0.8,1.3-1.7,1.9-2.5c0.7-1,1.4-1.9,2.1-2.9c0.6-0.9,1.2-1.9,1.8-2.9
		c0.6-1,1.2-2,1.7-3c0.6-1.1,1.1-2.1,1.6-3.2c0.5-1,0.9-2,1.4-3c0.5-1.2,0.9-2.4,1.3-3.6c0.3-1,0.7-1.9,1-2.9c0.4-1.3,0.7-2.7,1.1-4
		c0.2-0.9,0.5-1.9,0.7-2.8c0.3-1.5,0.5-3.1,0.7-4.7c0.1-0.8,0.3-1.6,0.3-2.4c0.2-2.4,0.4-4.8,0.4-7.2c0-39.6-32.2-71.8-71.8-71.8
		c-39.6,0-71.8,32.2-71.8,71.8c0,2.4,0.1,4.9,0.4,7.2c0.1,0.8,0.2,1.5,0.3,2.3c0.2,1.6,0.4,3.2,0.7,4.7c0.2,0.9,0.4,1.8,0.7,2.7
		c0.3,1.4,0.7,2.8,1.1,4.1c0.3,0.9,0.6,1.8,1,2.7c0.5,1.3,0.9,2.6,1.4,3.8c0.4,0.9,0.8,1.8,1.3,2.7c0.6,1.2,1.1,2.4,1.7,3.5
		c0.5,0.9,1,1.8,1.5,2.6c0.7,1.1,1.3,2.2,2,3.2c0.6,0.9,1.2,1.7,1.8,2.5c0.7,1,1.5,2,2.3,3c0.7,0.8,1.3,1.6,2,2.4
		c0.8,0.9,1.7,1.8,2.5,2.7c0.4,0.4,0.7,0.7,1.1,1.1c-0.2-0.3-0.3-0.7-0.4-1.1C106.8,268.8,106.4,267.9,106,266.9z"/>
</g>
</svg>
