<svg id="Layer_1" data-name="Layer 1" xmlns="http://www.w3.org/2000/svg" xmlns:xlink="http://www.w3.org/1999/xlink" viewBox="0 0 100 100"><defs><style>.cls-1{fill:url(#Sky_14);}.cls-2{fill:url(#Sky_14-2);}.cls-3{fill:url(#Sky_14-3);}.cls-4{fill:url(#Sky_14-4);}</style><linearGradient id="Sky_14" x1="73.97" y1="89.88" x2="8.45" y2="13.25" gradientUnits="userSpaceOnUse"><stop offset="0" stop-color="#f8d175"/><stop offset="0.21" stop-color="#f2a85d"/><stop offset="0.36" stop-color="#ef9150"/><stop offset="0.54" stop-color="#cb7232"/><stop offset="1" stop-color="#8d4a24"/></linearGradient><linearGradient id="Sky_14-2" x1="92.86" y1="73.73" x2="27.34" y2="-2.9" xlink:href="#Sky_14"/><linearGradient id="Sky_14-3" x1="78.95" y1="85.62" x2="13.43" y2="8.99" xlink:href="#Sky_14"/><linearGradient id="Sky_14-4" x1="98.27" y1="69.1" x2="32.75" y2="-7.53" xlink:href="#Sky_14"/></defs><title>Artboard 9</title><path class="cls-1" d="M81.23,67.64A33.54,33.54,0,0,0,50.45,36s0,.11,0,.16l0,0s0-.09,0-.13h-.13A33.55,33.55,0,0,0,18.77,66.74a33.45,33.45,0,0,0,22-9.79c.3-.3.59-.6.88-.91-.09,1-.14,2-.14,3a34.32,34.32,0,0,0,8.19,22.28,34.3,34.3,0,0,0,8.85-23c0-.76,0-1.52-.09-2.27.58.67,1.17,1.32,1.8,2A33.42,33.42,0,0,0,81.23,67.64Z"/><path class="cls-2" d="M45.36,27.69l2.38,4.13a2.61,2.61,0,0,0,4.52,0l2.38-4.13L57,23.57a2.61,2.61,0,0,0-2.26-3.91H45.24A2.61,2.61,0,0,0,43,23.57Z"/><path class="cls-3" d="M42.18,33.87h0a23.35,23.35,0,0,0-14.66-6.78,23.42,23.42,0,0,0,3.67,11.41A35.39,35.39,0,0,1,42.18,33.87Z"/><path class="cls-4" d="M72.84,27.71a23.36,23.36,0,0,0-14.65,6.17,35.39,35.39,0,0,1,11,4.62A23.5,23.5,0,0,0,72.84,27.71Z"/></svg>