<svg id="Layer_1" data-name="Layer 1" xmlns="http://www.w3.org/2000/svg" xmlns:xlink="http://www.w3.org/1999/xlink" viewBox="0 0 100 100"><defs><style>.cls-1{fill:url(#Summer);}.cls-2{fill:url(#Summer-2);}.cls-3{fill:url(#Summer-4);}.cls-4{fill:url(#Summer-5);}.cls-5{fill:url(#Summer-6);}.cls-6{fill:url(#Summer-7);}.cls-7{fill:url(#Summer-8);}.cls-8{fill:url(#Summer-9);}.cls-9{fill:url(#Summer-10);}.cls-10{fill:url(#radial-gradient);}.cls-11{fill:url(#radial-gradient-2);}.cls-12{fill:url(#Summer-11);}.cls-13{fill:url(#radial-gradient-3);}</style><radialGradient id="Summer" cx="50" cy="50" r="0.18" gradientUnits="userSpaceOnUse"><stop offset="0" stop-color="#fff"/><stop offset="0.09" stop-color="#ffedd8"/><stop offset="0.21" stop-color="#ffd5a7"/><stop offset="0.33" stop-color="#ffc17d"/><stop offset="0.46" stop-color="#ffb05b"/><stop offset="0.59" stop-color="#ffa340"/><stop offset="0.72" stop-color="#ff9a2d"/><stop offset="0.86" stop-color="#ff9522"/><stop offset="1" stop-color="#ff931e"/></radialGradient><radialGradient id="Summer-2" r="0.18" xlink:href="#Summer"/><radialGradient id="Summer-4" r="0.02" xlink:href="#Summer"/><radialGradient id="Summer-5" r="0.17" xlink:href="#Summer"/><radialGradient id="Summer-6" r="0.62" xlink:href="#Summer"/><radialGradient id="Summer-7" r="0.46" xlink:href="#Summer"/><radialGradient id="Summer-8" r="0.6" xlink:href="#Summer"/><radialGradient id="Summer-9" r="0.58" xlink:href="#Summer"/><radialGradient id="Summer-10" r="0.44" xlink:href="#Summer"/><radialGradient id="radial-gradient" cx="70.8" cy="25.75" r="18.67" gradientUnits="userSpaceOnUse"><stop offset="0" stop-color="#fff"/><stop offset="0.09" stop-color="#ffe4d8"/><stop offset="0.21" stop-color="#ffc1a7"/><stop offset="0.33" stop-color="#ffa37d"/><stop offset="0.46" stop-color="#ff8b5b"/><stop offset="0.59" stop-color="#ff7840"/><stop offset="0.72" stop-color="#ff6b2d"/><stop offset="0.86" stop-color="#ff6322"/><stop offset="1" stop-color="#ff601e"/></radialGradient><radialGradient id="radial-gradient-2" cx="70.8" cy="25.75" r="18.67" gradientUnits="userSpaceOnUse"><stop offset="0" stop-color="#fff"/><stop offset="0.09" stop-color="#ffead8"/><stop offset="0.21" stop-color="#ffd0a7"/><stop offset="0.33" stop-color="#ffba7d"/><stop offset="0.46" stop-color="#ffa75b"/><stop offset="0.59" stop-color="#ff9940"/><stop offset="0.72" stop-color="#ff8f2d"/><stop offset="0.86" stop-color="#ff8922"/><stop offset="1" stop-color="#ff871e"/></radialGradient><radialGradient id="Summer-11" cx="70.8" cy="25.75" r="18.67" xlink:href="#Summer"/><radialGradient id="radial-gradient-3" cx="70.8" cy="25.75" r="18.67" gradientUnits="userSpaceOnUse"><stop offset="0" stop-color="#fff"/><stop offset="0.07" stop-color="#ffede0"/><stop offset="0.2" stop-color="#ffcfad"/><stop offset="0.33" stop-color="#ffb681"/><stop offset="0.46" stop-color="#ffa25d"/><stop offset="0.6" stop-color="#ff9241"/><stop offset="0.73" stop-color="#ff862e"/><stop offset="0.86" stop-color="#ff7f22"/><stop offset="1" stop-color="#ff7d1e"/><stop offset="1" stop-color="#ff841e"/><stop offset="1" stop-color="#ff8f1e"/><stop offset="1" stop-color="#ff931e"/></radialGradient></defs><title>Artboard 8</title><path class="cls-1" d="M49.74,50l.52,0Z"/><path class="cls-2" d="M49.75,50l.5-.06Z"/><path class="cls-2" d="M49.76,50.07l.48-.14Z"/><path class="cls-3" d="M50,50,50,50Z"/><path class="cls-4" d="M49.77,50.08l.46-.16Z"/><path class="cls-5" d="M49.12,50c.59,0,1.18,0,1.76-.06C50.3,50,49.71,50,49.12,50Z"/><path class="cls-6" d="M49.36,50.07c.43,0,.86-.08,1.28-.14C50.22,50,49.79,50,49.36,50.07Z"/><path class="cls-7" d="M49.16,50.14c.56-.08,1.13-.17,1.68-.28C50.29,50,49.72,50.06,49.16,50.14Z"/><path class="cls-8" d="M49.2,50.19c.54-.11,1.07-.24,1.6-.38C50.27,50,49.74,50.08,49.2,50.19Z"/><path class="cls-9" d="M49.4,50.19c.4-.12.8-.24,1.2-.38C50.2,50,49.8,50.07,49.4,50.19Z"/><path class="cls-10" d="M50.38,77.7A5.26,5.26,0,0,0,55.09,73a4.07,4.07,0,0,0,0-.5,5.28,5.28,0,1,0-5.83,5.25h.12l.43,0a4.36,4.36,0,0,0,.51,0Z"/><path class="cls-11" d="M31.1,74.16c-.24-.49-.47-1-.68-1.48l-.07-.16c-.22-.54-.41-1.1-.58-1.66l-.12-.4c-.15-.53-.29-1.07-.4-1.63l0-.12c-.11-.58-.19-1.17-.26-1.77,0-.14,0-.29,0-.44-.05-.6-.09-1.21-.09-1.83a21.17,21.17,0,0,1,42.34,0c0,.62,0,1.23-.09,1.83,0,.15,0,.3,0,.44a17.14,17.14,0,0,1-.26,1.77.5.5,0,0,1,0,.12c-.11.56-.25,1.1-.4,1.63l-.12.41c-.18.55-.37,1.11-.58,1.64,0,.07-.06.13-.08.19-.2.49-.43,1-.66,1.43-.06.13-.12.25-.19.37s-.09.18-.13.26l.13-.14.38-.42.42-.48.36-.44.39-.5c.11-.15.23-.3.34-.46l.36-.51.33-.48c.11-.17.22-.35.34-.52l.3-.5.31-.54c.1-.17.19-.34.28-.51l.29-.56c.08-.17.17-.35.25-.53s.18-.38.26-.57l.24-.54c.08-.19.15-.39.23-.59l.21-.55c.07-.2.14-.4.2-.6s.13-.37.18-.56.12-.42.18-.63.11-.37.15-.56.11-.43.16-.65l.12-.56c0-.22.08-.46.12-.69s.07-.35.1-.54l.09-.73.06-.52c0-.27,0-.55.07-.83l0-.43q0-.65,0-1.29a25.5,25.5,0,0,0-51,0q0,.64,0,1.29l0,.42c0,.28,0,.56.07.84s0,.34.06.5l.09.76.09.52c0,.23.08.47.13.71l.12.53c.05.23.1.45.16.68s.09.35.14.53.12.44.19.66.11.35.17.53l.21.63c.07.17.14.35.2.52s.16.41.25.62.14.34.22.51.17.4.27.6.16.34.25.51.19.38.29.57l.27.5.32.55.3.49.34.53.32.48.37.51c.11.16.23.31.34.46l.39.5.36.44c.14.16.27.32.41.47l.39.43.13.14c-.05-.09-.1-.19-.14-.28S31.16,74.26,31.1,74.16Z"/><path class="cls-12" d="M24.45,70c-.23-.47-.45-.94-.66-1.43l0-.09c-.22-.51-.41-1-.6-1.56-.06-.15-.11-.3-.16-.46-.13-.39-.26-.79-.37-1.19-.05-.16-.1-.32-.14-.49-.14-.52-.27-1.05-.38-1.59l0-.06c-.11-.56-.21-1.12-.29-1.69l-.06-.5c-.05-.43-.1-.85-.13-1.28,0-.17,0-.35,0-.52,0-.58-.06-1.17-.06-1.76a28.5,28.5,0,0,1,57,0c0,.59,0,1.18-.06,1.76,0,.17,0,.35,0,.52,0,.43-.08.86-.13,1.28l-.06.5c-.09.57-.18,1.13-.29,1.69,0,0,0,0,0,.05-.11.54-.24,1.07-.38,1.6,0,.17-.09.33-.14.49-.11.4-.24.8-.37,1.19-.05.16-.1.31-.16.47-.19.52-.38,1-.6,1.55l0,.11c-.2.47-.42.94-.65,1.41l-.23.44c-.19.37-.39.73-.59,1.08l-.15.28a32.83,32.83,0,1,0-49.16,0c-.05-.08-.1-.18-.15-.27-.2-.35-.4-.71-.59-1.08Z"/><path class="cls-13" d="M37,76.68l-.18-.55c-.08-.26-.15-.53-.22-.8s-.09-.35-.12-.53a9.28,9.28,0,0,1-.15-.92c0-.16-.05-.31-.07-.46,0-.47-.07-.94-.07-1.42a13.83,13.83,0,0,1,27.66,0c0,.48,0,1-.07,1.42,0,.15,0,.3-.07.45,0,.31-.08.63-.15.93s-.08.35-.12.52-.14.55-.22.82l-.18.52c-.09.26-.19.51-.3.77,0,.07,0,.15-.08.22l.33-.32c.17-.18.35-.36.52-.55s.41-.47.61-.72.34-.42.5-.64l.52-.74c.16-.23.31-.48.45-.72s.3-.5.44-.75.27-.54.4-.82.24-.49.35-.75.23-.6.34-.91.18-.49.26-.74.18-.67.26-1,.13-.46.18-.7c.08-.39.13-.79.18-1.18,0-.2.07-.4.09-.6.06-.61.1-1.22.1-1.83a18.17,18.17,0,0,0-36.34,0c0,.61,0,1.23.1,1.83,0,.2.06.39.08.58.06.4.11.81.19,1.2,0,.23.11.45.17.67s.17.71.27,1,.17.47.25.7.23.64.36,1,.21.46.32.68.28.6.44.89.25.45.38.67.33.55.51.82.3.43.46.64.38.51.58.75.34.41.51.61l.64.68.28.26a2,2,0,0,1-.1-.26C37.16,77.16,37.07,76.92,37,76.68Z"/><path d="M75.5,57.33q0,.64,0,1.29Q75.5,58,75.5,57.33Z"/><path d="M75.44,59.05c0,.28,0,.56-.07.83C75.4,59.61,75.42,59.33,75.44,59.05Z"/><path d="M75.12,61.67c0,.23-.08.47-.12.69C75,62.14,75.08,61.9,75.12,61.67Z"/><path d="M75.31,60.4l-.09.73Z"/><path d="M24.78,61.14l-.09-.76Z"/><path d="M24.53,58.62q0-.65,0-1.29Q24.5,58,24.53,58.62Z"/><path d="M25.28,63.58c-.06-.23-.11-.45-.16-.68C25.17,63.13,25.22,63.35,25.28,63.58Z"/><path d="M25,62.37c-.05-.24-.09-.48-.13-.71C24.91,61.89,25,62.13,25,62.37Z"/><path d="M24.63,59.88c0-.28-.05-.56-.07-.84C24.58,59.32,24.6,59.6,24.63,59.88Z"/><path d="M68.58,74.78l.14-.16-.13.14Z"/><path d="M71,71.81l-.36.51Z"/><path d="M69.52,73.72l-.42.48Z"/><path d="M72.25,69.77l-.31.54Z"/><path d="M72.82,68.7l-.29.56Z"/><path d="M71.64,70.81c-.12.17-.23.35-.34.52C71.41,71.16,71.52,71,71.64,70.81Z"/><path d="M70.27,72.78l-.39.5Z"/><path d="M25.61,64.77c-.07-.22-.13-.44-.19-.66C25.48,64.33,25.54,64.55,25.61,64.77Z"/><path d="M73.33,67.6c-.08.19-.17.38-.26.57C73.16,68,73.25,67.79,73.33,67.6Z"/><path d="M74.57,64.13c-.06.21-.11.42-.18.63C74.46,64.55,74.51,64.34,74.57,64.13Z"/><path d="M74.88,62.92c0,.22-.1.44-.16.65C74.78,63.36,74.83,63.14,74.88,62.92Z"/><path d="M74.21,65.32c-.06.2-.13.4-.2.6C74.08,65.72,74.15,65.52,74.21,65.32Z"/><path d="M73.8,66.47c-.08.2-.15.4-.23.59C73.65,66.87,73.72,66.67,73.8,66.47Z"/><path d="M30.12,73.28l-.39-.5Z"/><path d="M78.4,59.61c0-.17,0-.35,0-.52C78.43,59.26,78.41,59.44,78.4,59.61Z"/><path d="M77.38,65.22c.05-.16.1-.32.14-.49C77.48,64.9,77.43,65.06,77.38,65.22Z"/><path d="M75.32,70.39l.23-.44C75.47,70.1,75.4,70.25,75.32,70.39Z"/><path d="M76.2,68.54l0-.11Z"/><path d="M77.9,63.13s0,0,0-.05S77.91,63.12,77.9,63.13Z"/><path d="M78.21,61.39l.06-.5Z"/><path d="M31.42,74.78v0l-.13-.14Z"/><path d="M28.06,70.31l-.32-.55Z"/><path d="M27.47,69.26c-.1-.19-.2-.38-.29-.57C27.27,68.88,27.37,69.07,27.47,69.26Z"/><path d="M26.93,68.18c-.1-.2-.18-.4-.27-.6C26.75,67.78,26.83,68,26.93,68.18Z"/><path d="M23.75,68.43l0,.09Z"/><path d="M28.7,71.33l-.34-.53Z"/><path d="M26.44,67.07c-.09-.21-.17-.41-.25-.62C26.27,66.66,26.35,66.86,26.44,67.07Z"/><path d="M26,65.93l-.21-.63Z"/><path d="M24.45,70l.23.44Z"/><path d="M29.39,72.32,29,71.81Z"/><path d="M30.89,74.19c-.14-.15-.27-.31-.41-.47C30.62,73.88,30.75,74,30.89,74.19Z"/><path d="M76.85,66.88c.06-.16.11-.31.16-.47C77,66.57,76.91,66.72,76.85,66.88Z"/><path d="M25.78,65.3c-.06-.18-.12-.36-.17-.53C25.66,64.94,25.72,65.12,25.78,65.3Z"/><path d="M68.54,74.81l0,0c0-.08.09-.17.13-.26Z"/><path d="M69.65,72.51c.21-.53.4-1.09.58-1.64C70.05,71.42,69.86,72,69.65,72.51Z"/><path d="M68.91,74.13c.23-.47.46-.94.66-1.43C69.37,73.19,69.14,73.66,68.91,74.13Z"/><path d="M25.12,62.9,25,62.37Z"/><path d="M29,71.81l-.32-.48Z"/><path d="M26.19,66.45c-.06-.17-.13-.35-.2-.52C26.06,66.1,26.13,66.28,26.19,66.45Z"/><path d="M27.74,69.76l-.27-.5Z"/><path d="M71.94,70.31l-.3.5Z"/><path d="M70.77,68.71A17.14,17.14,0,0,0,71,66.94,17.14,17.14,0,0,1,70.77,68.71Z"/><path d="M26.66,67.58c-.08-.17-.15-.34-.22-.51C26.51,67.24,26.58,67.41,26.66,67.58Z"/><path d="M27.18,68.69c-.09-.17-.17-.34-.25-.51C27,68.35,27.09,68.52,27.18,68.69Z"/><path d="M70.35,70.46c.15-.53.29-1.07.4-1.63C70.64,69.39,70.5,69.93,70.35,70.46Z"/><path d="M25.42,64.11c-.05-.18-.1-.35-.14-.53C25.32,63.76,25.37,63.93,25.42,64.11Z"/><path d="M74,65.92l-.21.55Z"/><path d="M73.57,67.06l-.24.54Z"/><path d="M74.39,64.76c0,.19-.12.37-.18.56C74.27,65.13,74.34,65,74.39,64.76Z"/><path d="M74.72,63.57c0,.19-.1.38-.15.56C74.62,64,74.68,63.76,74.72,63.57Z"/><path d="M73.07,68.17c-.08.18-.17.36-.25.53C72.9,68.53,73,68.35,73.07,68.17Z"/><path d="M72.53,69.26c-.09.17-.18.34-.28.51C72.35,69.6,72.44,69.43,72.53,69.26Z"/><path d="M75.37,59.88l-.06.52Z"/><path d="M75.47,58.62l0,.43Z"/><path d="M24.56,59l0-.42Z"/><path d="M24.69,60.38c0-.16-.05-.33-.06-.5C24.64,60.05,24.67,60.22,24.69,60.38Z"/><path d="M24.87,61.66l-.09-.52Z"/><path d="M75.22,61.13c0,.19-.07.36-.1.54C75.15,61.49,75.19,61.32,75.22,61.13Z"/><path d="M75,62.36l-.12.56Z"/><path d="M28.36,70.8l-.3-.49Z"/><path d="M78.44,59.09c0-.58.06-1.17.06-1.76C78.5,57.92,78.48,58.51,78.44,59.09Z"/><path d="M31.41,74.76l.05,0-.19-.33C31.31,74.57,31.36,74.67,31.41,74.76Z"/><path d="M78.27,60.89c0-.42.1-.85.13-1.28C78.37,60,78.32,60.47,78.27,60.89Z"/><path d="M30.42,72.68c.21.5.44,1,.68,1.48C30.86,73.67,30.63,73.18,30.42,72.68Z"/><path d="M75.55,70c.23-.47.45-.94.65-1.41C76,69,75.78,69.48,75.55,70Z"/><path d="M76.25,68.43c.22-.51.41-1,.6-1.55C76.66,67.4,76.47,67.92,76.25,68.43Z"/><path d="M74.73,71.47c.2-.35.4-.71.59-1.08C75.13,70.76,74.93,71.12,74.73,71.47Z"/><path d="M77,66.41c.13-.39.26-.79.37-1.19C77.27,65.62,77.14,66,77,66.41Z"/><path d="M77.92,63.08c.11-.56.2-1.12.29-1.69C78.12,62,78,62.52,77.92,63.08Z"/><path d="M77.52,64.73c.14-.53.27-1.06.38-1.6C77.79,63.67,77.66,64.2,77.52,64.73Z"/><path d="M31.28,74.62l-.39-.43Z"/><path d="M28.83,64.67c0,.62,0,1.23.09,1.83C28.87,65.9,28.83,65.29,28.83,64.67Z"/><path d="M29.73,72.78c-.11-.15-.23-.3-.34-.46C29.5,72.48,29.62,72.63,29.73,72.78Z"/><path d="M25.27,71.47c-.2-.35-.4-.71-.59-1.08C24.87,70.76,25.07,71.12,25.27,71.47Z"/><path d="M29,66.94c.07.6.15,1.19.26,1.77C29.11,68.13,29,67.54,29,66.94Z"/><path d="M30.48,73.72l-.36-.44Z"/><path d="M71.08,66.5c0-.6.09-1.21.09-1.83C71.17,65.29,71.13,65.9,71.08,66.5Z"/><path d="M29.77,70.86c.17.56.36,1.12.58,1.66C30.13,72,29.94,71.42,29.77,70.86Z"/><path d="M23.15,66.87c.19.53.38,1,.6,1.56C23.53,67.92,23.34,67.4,23.15,66.87Z"/><path d="M23.79,68.52c.21.49.43,1,.66,1.43C24.22,69.48,24,69,23.79,68.52Z"/><path d="M29.25,68.83c.11.56.25,1.1.4,1.63C29.5,69.93,29.36,69.39,29.25,68.83Z"/><path d="M33.57,72.34c-.11-.22-.22-.45-.32-.68C33.35,71.89,33.46,72.12,33.57,72.34Z"/><path d="M32,67.08c0-.19-.06-.38-.08-.58C32,66.7,32,66.89,32,67.08Z"/><path d="M32.89,70.7c-.08-.23-.17-.46-.25-.7C32.72,70.24,32.81,70.47,32.89,70.7Z"/><path d="M37.39,77.71s0,0,0,0l-.28-.26C37.19,77.5,37.28,77.61,37.39,77.71Z"/><path d="M67.8,68.28c0,.24-.12.47-.18.7C67.68,68.75,67.75,68.52,67.8,68.28Z"/><path d="M68.07,66.5c0,.2-.06.4-.09.6C68,66.9,68.05,66.7,68.07,66.5Z"/><path d="M36.45,76.72c-.17-.2-.35-.4-.51-.61C36.1,76.32,36.28,76.52,36.45,76.72Z"/><path d="M34.39,73.9c-.13-.22-.26-.44-.38-.67C34.13,73.46,34.26,73.68,34.39,73.9Z"/><path d="M35.36,75.36c-.16-.21-.31-.42-.46-.64C35.05,74.94,35.2,75.15,35.36,75.36Z"/><path d="M32.37,69c-.06-.22-.12-.44-.17-.67C32.25,68.51,32.31,68.73,32.37,69Z"/><path d="M48.89,82.78h0Z"/><path d="M62.61,77.71c.13-.12.24-.26.36-.38l-.33.32Z"/><path d="M67.36,70c-.08.25-.18.5-.26.74C67.18,70.49,67.28,70.25,67.36,70Z"/><path d="M66.76,71.64c-.11.26-.23.5-.35.75C66.53,72.14,66.65,71.9,66.76,71.64Z"/><path d="M65.12,74.68l-.52.74Z"/><path d="M66,73.21c-.14.25-.29.5-.44.75C65.72,73.71,65.87,73.46,66,73.21Z"/><path d="M64.1,76.06c-.2.25-.4.48-.61.72C63.7,76.54,63.9,76.31,64.1,76.06Z"/><path d="M70.61,72.32c-.11.16-.23.31-.34.46C70.38,72.63,70.5,72.48,70.61,72.32Z"/><path d="M69.1,74.2l-.38.42Z"/><path d="M69.88,73.28l-.36.44Z"/><path d="M71.3,71.33l-.33.48Z"/><path d="M36.46,74.8c0,.18.08.35.12.53C36.54,75.15,36.49,75,36.46,74.8Z"/><path d="M29.22,68.71l0,.12Z"/><path d="M67.1,70.73c-.11.31-.22.61-.34.91C66.88,71.34,67,71,67.1,70.73Z"/><path d="M68,67.1c0,.39-.1.79-.18,1.18C67.88,67.89,67.93,67.49,68,67.1Z"/><path d="M71,66.94c0-.14,0-.29,0-.44C71.06,66.65,71.05,66.8,71,66.94Z"/><path d="M68.17,64.67c0,.61,0,1.22-.1,1.83C68.13,65.89,68.17,65.28,68.17,64.67Z"/><path d="M67.62,69c-.08.34-.16.68-.26,1C67.46,69.66,67.54,69.32,67.62,69Z"/><path d="M66.41,72.39c-.13.28-.26.55-.4.82C66.15,72.94,66.28,72.67,66.41,72.39Z"/><path d="M28.92,66.5c0,.15,0,.3,0,.44C29,66.8,28.93,66.65,28.92,66.5Z"/><path d="M30.35,72.52l.07.16Z"/><path d="M63.69,73.87c0-.15.05-.3.07-.45C63.74,73.57,63.71,73.72,63.69,73.87Z"/><path d="M31.1,74.16c.06.1.11.21.17.32C31.21,74.37,31.16,74.26,31.1,74.16Z"/><path d="M63,76.66l.18-.52Z"/><path d="M62.61,77.67l0,0c0-.07,0-.15.08-.22A2.56,2.56,0,0,1,62.61,77.67Z"/><path d="M36.24,73.42c0,.15,0,.3.07.46C36.29,73.72,36.26,73.57,36.24,73.42Z"/><path d="M65.57,74c-.14.24-.29.49-.45.72C65.28,74.45,65.43,74.2,65.57,74Z"/><path d="M63.49,76.78c-.17.19-.35.37-.52.55C63.15,77.15,63.32,77,63.49,76.78Z"/><path d="M29.65,70.46l.12.4Z"/><path d="M31.93,66.5c-.06-.6-.1-1.22-.1-1.83C31.83,65.28,31.87,65.89,31.93,66.5Z"/><path d="M64.6,75.42c-.16.22-.33.43-.5.64Z"/><path d="M37.37,77.66l0,0-.12-.29A2,2,0,0,0,37.37,77.66Z"/><path d="M34.9,74.72c-.18-.27-.34-.54-.51-.82C34.56,74.18,34.72,74.45,34.9,74.72Z"/><path d="M36.8,76.13l.18.55Z"/><path d="M63.42,75.32c0-.17.09-.34.12-.52C63.51,75,63.46,75.15,63.42,75.32Z"/><path d="M34,73.23c-.16-.29-.3-.59-.44-.89C33.71,72.64,33.85,72.94,34,73.23Z"/><path d="M35.94,76.11c-.2-.24-.4-.5-.58-.75C35.54,75.61,35.74,75.87,35.94,76.11Z"/><path d="M68.72,74.5c.07-.12.13-.24.19-.37C68.85,74.26,68.79,74.38,68.72,74.5Z"/><path d="M37.09,77.4l-.64-.68Z"/><path d="M33.25,71.66q-.2-.48-.36-1Q33.06,71.18,33.25,71.66Z"/><path d="M69.57,72.7c0-.06.05-.12.08-.19S69.59,72.64,69.57,72.7Z"/><path d="M32.64,70q-.15-.51-.27-1Q32.49,69.49,32.64,70Z"/><path d="M70.75,68.83a.5.5,0,0,0,0-.12A.5.5,0,0,1,70.75,68.83Z"/><path d="M70.23,70.87l.12-.41Z"/><path d="M32.2,68.28c-.08-.39-.13-.8-.19-1.2C32.07,67.48,32.12,67.89,32.2,68.28Z"/><path d="M63.76,73.42c0-.47.07-.94.07-1.42C63.83,72.48,63.8,73,63.76,73.42Z"/><path d="M37,76.68c.09.24.18.48.29.72C37.16,77.16,37.07,76.92,37,76.68Z"/><path d="M62.72,77.43c.11-.26.21-.51.3-.77C62.93,76.92,62.83,77.17,62.72,77.43Z"/><path d="M36.58,75.33c.07.27.14.54.22.8C36.72,75.87,36.65,75.6,36.58,75.33Z"/><path d="M63.54,74.8c.07-.3.11-.62.15-.93C63.65,74.18,63.61,74.5,63.54,74.8Z"/><path d="M36.31,73.88a9.28,9.28,0,0,0,.15.92A9.28,9.28,0,0,1,36.31,73.88Z"/><path d="M63.2,76.14c.08-.27.15-.55.22-.82C63.35,75.59,63.28,75.87,63.2,76.14Z"/><path d="M36.17,72c0,.48,0,1,.07,1.42C36.2,73,36.17,72.48,36.17,72Z"/></svg>