<svg id="Layer_1" data-name="Layer 1" xmlns="http://www.w3.org/2000/svg" xmlns:xlink="http://www.w3.org/1999/xlink" viewBox="0 0 100 100"><defs><style>.cls-1{fill:url(#linear-gradient);}.cls-2{fill:#fff;}.cls-3{fill:url(#linear-gradient-2);}</style><linearGradient id="linear-gradient" x1="22.35" y1="42.99" x2="77.65" y2="42.99" gradientUnits="userSpaceOnUse"><stop offset="0" stop-color="#8cc63f"/><stop offset="0.08" stop-color="#83c33f"/><stop offset="0.2" stop-color="#69b940"/><stop offset="0.36" stop-color="#40aa42"/><stop offset="0.55" stop-color="#079545"/><stop offset="0.57" stop-color="#009245"/><stop offset="0.87" stop-color="#39b54a"/><stop offset="0.99" stop-color="#8cc63f"/></linearGradient><linearGradient id="linear-gradient-2" x1="44.34" y1="76.31" x2="53.59" y2="76.31" xlink:href="#linear-gradient"/></defs><title>Artboard 3</title><polygon class="cls-1" points="22.35 67.17 36.47 52.51 22.35 52.51 34.72 39.67 29.91 39.67 50 18.8 70.09 39.67 65.28 39.67 77.65 52.51 63.53 52.51 77.65 67.17 22.35 67.17"/><path class="cls-2" d="M50,19.52l9.91,10.3,9,9.35H64.11l1.63,1.69L76.48,52H62.35L64,53.7l12.49,13h-53L36,53.7,37.65,52H23.52L34.26,40.86l1.63-1.69H31.08l9-9.35L50,19.52m0-1.44-10.63,11L28.73,40.17h4.81L21.17,53H35.29L21.17,67.67H78.83L64.71,53H78.83L66.46,40.17h4.81l-10.64-11L50,18.08Z"/><rect class="cls-3" x="44.34" y="71.19" width="9.25" height="10.22"/><path class="cls-2" d="M53.09,71.69v9.23H44.84V71.69h8.25m1-1H43.84V81.92H54.09V70.69Z"/></svg>