<svg id="Layer_1" data-name="Layer 1" xmlns="http://www.w3.org/2000/svg" xmlns:xlink="http://www.w3.org/1999/xlink" viewBox="0 0 100 100"><defs><style>.cls-1{fill:url(#Sky_15);}.cls-2{fill:url(#Sky_15-2);}.cls-3{fill:url(#Sky_15-3);}</style><linearGradient id="Sky_15" x1="40.01" y1="21.46" x2="53.88" y2="34.28" gradientUnits="userSpaceOnUse"><stop offset="0.01" stop-color="#ec7d4c"/><stop offset="0.8" stop-color="#f6b744"/><stop offset="1" stop-color="#f8c642"/></linearGradient><linearGradient id="Sky_15-2" x1="45.46" y1="24.93" x2="54.54" y2="24.93" xlink:href="#Sky_15"/><linearGradient id="Sky_15-3" x1="25.88" y1="68.02" x2="74.12" y2="68.02" xlink:href="#Sky_15"/></defs><title>Artboard 6</title><path class="cls-1" d="M25.88,23.67H42.5V27.2a7.5,7.5,0,0,0,15,0V23.67H74.12V27.2a24.12,24.12,0,0,1-48.24,0Zm10,7.06H33.31a17.06,17.06,0,0,0,33.38,0H64.12a14.56,14.56,0,0,1-28.24,0Z"/><path class="cls-2" d="M50,22.66a4.54,4.54,0,0,0-4.54,4.54h9.08A4.54,4.54,0,0,0,50,22.66Z"/><path class="cls-3" d="M74.12,81.84H57.5V78.31a7.5,7.5,0,0,0-15,0v3.53H25.88V78.31a24.12,24.12,0,0,1,48.24,0Zm-10-7.06h2.57a17.06,17.06,0,0,0-33.38,0h2.57a14.56,14.56,0,0,1,28.24,0Z"/></svg>