<svg id="Layer_1" data-name="Layer 1" xmlns="http://www.w3.org/2000/svg" viewBox="0 0 100 100"><defs><style>.cls-1{fill:#fbc398;}</style></defs><title>Artboard 5</title><path class="cls-1" d="M74.12,81.84H57.5V78.31a7.5,7.5,0,0,0-15,0v3.53H25.88V78.31a24.12,24.12,0,0,1,48.24,0Zm-10-7.06h2.57a17.06,17.06,0,0,0-33.38,0h2.57a14.56,14.56,0,0,1,28.24,0Z"/><path class="cls-1" d="M74.12,50.31H57.5V46.78a7.5,7.5,0,0,0-15,0v3.53H25.88V46.78a24.12,24.12,0,0,1,48.24,0Zm-10-7.06h2.57a17.06,17.06,0,0,0-33.38,0h2.57a14.55,14.55,0,0,1,28.24,0Z"/><path class="cls-1" d="M50,51.32a4.54,4.54,0,0,0,4.54-4.54H45.46A4.54,4.54,0,0,0,50,51.32Z"/><path class="cls-1" d="M74.12,81.84H57.5V78.31a7.5,7.5,0,0,0-15,0v3.53H25.88V78.31a24.12,24.12,0,0,1,48.24,0Zm-10-7.06h2.57a17.06,17.06,0,0,0-33.38,0h2.57a14.56,14.56,0,0,1,28.24,0Z"/><path class="cls-1" d="M74.12,50.31H57.5V46.78a7.5,7.5,0,0,0-15,0v3.53H25.88V46.78a24.12,24.12,0,0,1,48.24,0Zm-10-7.06h2.57a17.06,17.06,0,0,0-33.38,0h2.57a14.55,14.55,0,0,1,28.24,0Z"/><path class="cls-1" d="M50,51.32a4.54,4.54,0,0,0,4.54-4.54H45.46A4.54,4.54,0,0,0,50,51.32Z"/></svg>