<svg id="Layer_1" data-name="Layer 1" xmlns="http://www.w3.org/2000/svg" xmlns:xlink="http://www.w3.org/1999/xlink" viewBox="0 0 100 100"><defs><style>.cls-1{fill:url(#Sky_1);}.cls-2{fill:url(#Sky_1-2);}.cls-3{fill:url(#Sky_1-3);}.cls-4{fill:url(#Sky_1-4);}</style><linearGradient id="Sky_1" x1="25.88" y1="68.02" x2="74.12" y2="68.02" gradientUnits="userSpaceOnUse"><stop offset="0" stop-color="#6cb5e4"/><stop offset="0.09" stop-color="#63b0e1"/><stop offset="0.24" stop-color="#49a3d9"/><stop offset="0.44" stop-color="#208dcc"/><stop offset="0.57" stop-color="#007cc2"/><stop offset="1" stop-color="#0059a9"/></linearGradient><linearGradient id="Sky_1-2" x1="25.88" y1="36.48" x2="74.12" y2="36.48" xlink:href="#Sky_1"/><linearGradient id="Sky_1-3" x1="45.46" y1="49.05" x2="54.54" y2="49.05" xlink:href="#Sky_1"/><linearGradient id="Sky_1-4" x1="53.32" y1="80.91" x2="22.49" y2="37.5" xlink:href="#Sky_1"/></defs><title>Artboard 5</title><path class="cls-1" d="M74.12,81.84H57.5V78.31a7.5,7.5,0,0,0-15,0v3.53H25.88V78.31a24.12,24.12,0,0,1,48.24,0Zm-10-7.06h2.57a17.06,17.06,0,0,0-33.38,0h2.57a14.56,14.56,0,0,1,28.24,0Z"/><path class="cls-2" d="M74.12,50.31H57.5V46.78a7.5,7.5,0,0,0-15,0v3.53H25.88V46.78a24.12,24.12,0,0,1,48.24,0Zm-10-7.06h2.57a17.06,17.06,0,0,0-33.38,0h2.57a14.55,14.55,0,0,1,28.24,0Z"/><path class="cls-3" d="M50,51.32a4.54,4.54,0,0,0,4.54-4.54H45.46A4.54,4.54,0,0,0,50,51.32Z"/><path class="cls-4" d="M74.12,81.84H57.5V78.31a7.5,7.5,0,0,0-15,0v3.53H25.88V78.31a24.12,24.12,0,0,1,48.24,0Zm-10-7.06h2.57a17.06,17.06,0,0,0-33.38,0h2.57a14.56,14.56,0,0,1,28.24,0Z"/><path class="cls-2" d="M74.12,50.31H57.5V46.78a7.5,7.5,0,0,0-15,0v3.53H25.88V46.78a24.12,24.12,0,0,1,48.24,0Zm-10-7.06h2.57a17.06,17.06,0,0,0-33.38,0h2.57a14.55,14.55,0,0,1,28.24,0Z"/><path class="cls-3" d="M50,51.32a4.54,4.54,0,0,0,4.54-4.54H45.46A4.54,4.54,0,0,0,50,51.32Z"/></svg>