<svg id="Layer_1" data-name="Layer 1" xmlns="http://www.w3.org/2000/svg" viewBox="0 0 100 100"><defs><style>.cls-1{fill:#fbc398;}</style></defs><title>Artboard 6</title><path class="cls-1" d="M25.88,23.67H42.5V27.2a7.5,7.5,0,0,0,15,0V23.67H74.12V27.2a24.12,24.12,0,0,1-48.24,0Zm10,7.06H33.31a17.06,17.06,0,0,0,33.38,0H64.12a14.56,14.56,0,0,1-28.24,0Z"/><path class="cls-1" d="M50,22.66a4.54,4.54,0,0,0-4.54,4.54h9.08A4.54,4.54,0,0,0,50,22.66Z"/><path class="cls-1" d="M74.12,81.84H57.5V78.31a7.5,7.5,0,0,0-15,0v3.53H25.88V78.31a24.12,24.12,0,0,1,48.24,0Zm-10-7.06h2.57a17.06,17.06,0,0,0-33.38,0h2.57a14.56,14.56,0,0,1,28.24,0Z"/></svg>