<svg id="Layer_1" data-name="Layer 1" xmlns="http://www.w3.org/2000/svg" xmlns:xlink="http://www.w3.org/1999/xlink" viewBox="0 0 100 100"><defs><style>.cls-1{fill:url(#New_Gradient_Swatch_3);}.cls-2{fill:url(#New_Gradient_Swatch_3-2);}.cls-3{fill:url(#New_Gradient_Swatch_3-3);}.cls-4{fill:url(#New_Gradient_Swatch_3-4);}</style><linearGradient id="New_Gradient_Swatch_3" x1="32.31" y1="93.29" x2="88.31" y2="24.62" gradientUnits="userSpaceOnUse"><stop offset="0" stop-color="#ed0c38"/><stop offset="0.78" stop-color="#ea0872"/><stop offset="1" stop-color="#e90783"/></linearGradient><linearGradient id="New_Gradient_Swatch_3-2" x1="25" y1="87.32" x2="81" y2="18.66" xlink:href="#New_Gradient_Swatch_3"/><linearGradient id="New_Gradient_Swatch_3-3" x1="21.41" y1="84.4" x2="77.41" y2="15.73" xlink:href="#New_Gradient_Swatch_3"/><linearGradient id="New_Gradient_Swatch_3-4" x1="28.58" y1="90.25" x2="84.58" y2="21.58" xlink:href="#New_Gradient_Swatch_3"/></defs><title>Artboard 8</title><path class="cls-1" d="M50.38,77a5.26,5.26,0,0,0,4.71-4.75,4.07,4.07,0,0,0,0-.5A5.28,5.28,0,1,0,49.29,77h.12l.43,0a4.36,4.36,0,0,0,.51,0Z"/><path class="cls-2" d="M31.1,73.5c-.24-.48-.47-1-.68-1.48l-.07-.16c-.22-.54-.41-1.09-.58-1.66l-.12-.39c-.15-.54-.29-1.08-.4-1.64l0-.11c-.11-.59-.19-1.18-.26-1.78,0-.14,0-.29,0-.44-.05-.6-.09-1.21-.09-1.83a21.17,21.17,0,0,1,42.34,0c0,.62,0,1.23-.09,1.84,0,.14,0,.29,0,.43a17.75,17.75,0,0,1-.26,1.78.5.5,0,0,1,0,.12c-.11.55-.25,1.09-.4,1.62l-.12.41c-.18.56-.37,1.11-.58,1.65a1.42,1.42,0,0,0-.08.18c-.2.49-.43,1-.66,1.44-.06.12-.12.24-.19.36l-.13.27.13-.15.38-.42.42-.48.36-.44.39-.49.34-.47.36-.5.33-.49.34-.52.3-.5.31-.54c.1-.17.19-.34.28-.51l.29-.56c.08-.17.17-.35.25-.53s.18-.38.26-.57l.24-.54c.08-.19.15-.39.23-.59l.21-.55c.07-.2.14-.4.2-.6s.13-.37.18-.56.12-.42.18-.63.11-.37.15-.56.11-.43.16-.65l.12-.55.12-.69c0-.18.07-.36.1-.54l.09-.74.06-.51c0-.28,0-.56.07-.84l0-.43c0-.43,0-.85,0-1.29a25.5,25.5,0,0,0-51,0c0,.44,0,.86,0,1.29l0,.42c0,.28,0,.57.07.85s0,.33.06.49l.09.76.09.52c0,.23.08.47.13.71l.12.53c.05.23.1.45.16.68s.09.35.14.53.12.44.19.66.11.35.17.53l.21.63c.07.18.14.35.2.53s.16.41.25.61l.22.52c.09.19.17.39.27.59s.16.34.25.51.19.38.29.57l.27.5.32.56.3.48.34.54.32.47.37.51c.11.16.23.31.34.46l.39.5.36.44.41.48.39.42.13.14c-.05-.09-.1-.19-.14-.28Z"/><path class="cls-3" d="M24.45,69.29c-.23-.47-.45-.94-.66-1.42a1,1,0,0,1,0-.1c-.22-.51-.41-1-.6-1.55-.06-.16-.11-.31-.16-.46-.13-.4-.26-.8-.37-1.2-.05-.16-.1-.32-.14-.49-.14-.52-.27-1-.38-1.59,0,0,0,0,0-.06-.11-.56-.21-1.12-.29-1.69l-.06-.5c-.05-.42-.1-.85-.13-1.28,0-.17,0-.34,0-.52,0-.58-.06-1.16-.06-1.76a28.5,28.5,0,0,1,57,0c0,.6,0,1.18-.06,1.76,0,.18,0,.35,0,.52,0,.43-.08.86-.13,1.28l-.06.5c-.09.57-.18,1.13-.29,1.69,0,0,0,0,0,.06-.11.53-.24,1.07-.38,1.59,0,.17-.09.33-.14.49-.11.4-.24.8-.37,1.19-.05.16-.1.31-.16.47-.19.52-.38,1-.6,1.55l0,.11c-.2.48-.42.94-.65,1.41l-.23.45c-.19.36-.39.72-.59,1.07l-.15.28a32.83,32.83,0,1,0-49.16,0l-.15-.27c-.2-.36-.4-.72-.59-1.09Z"/><path class="cls-4" d="M37,76l-.18-.55c-.08-.26-.15-.53-.22-.8s-.09-.35-.12-.53a9.28,9.28,0,0,1-.15-.92c0-.16-.05-.3-.07-.46,0-.47-.07-.94-.07-1.42a13.83,13.83,0,0,1,27.66,0c0,.48,0,1-.07,1.42,0,.15,0,.3-.07.45a9,9,0,0,1-.15.93c0,.18-.08.35-.12.52s-.14.55-.22.82L63,76c-.09.26-.19.52-.3.77,0,.07,0,.15-.08.22l.33-.32c.17-.18.35-.36.52-.55s.41-.47.61-.72.34-.42.5-.64.35-.48.52-.73.31-.49.45-.73.3-.5.44-.75.27-.54.4-.82.24-.49.35-.75.23-.6.34-.9.18-.49.26-.74.18-.68.26-1,.13-.47.18-.71c.08-.39.13-.79.18-1.18,0-.2.07-.4.09-.6.06-.6.1-1.21.1-1.83a18.17,18.17,0,0,0-36.34,0c0,.62,0,1.23.1,1.83,0,.2.06.39.08.58.06.41.11.81.19,1.2,0,.23.11.45.17.68s.17.7.27,1,.17.47.25.7.23.64.36,1,.21.46.32.69.28.59.44.88.25.45.38.67.33.55.51.82.3.43.46.64.38.51.58.75.34.41.51.61.42.46.64.68l.28.27c0-.09-.07-.18-.1-.27S37.07,76.26,37,76Z"/></svg>