<svg id="Layer_1" data-name="Layer 1" xmlns="http://www.w3.org/2000/svg" viewBox="0 0 100 100"><defs><style>.cls-1{fill:#fbc398;}</style></defs><title>Artboard 11</title><path class="cls-1" d="M70.71,38.61a20.79,20.79,0,0,0-41.42,0Z"/><path class="cls-1" d="M35,54.88a10.24,10.24,0,0,0,6.28-2A15.34,15.34,0,0,1,47,50.53a15.17,15.17,0,0,1-5.71-2.39,10.24,10.24,0,0,0-6.28-2,10.24,10.24,0,0,0-6.28,2,15.17,15.17,0,0,1-5.71,2.39,15.46,15.46,0,0,1,5.72,2.39A10.21,10.21,0,0,0,35,54.88Z"/><path class="cls-1" d="M61.3,59.08a15.64,15.64,0,0,1-5-2.25A10.24,10.24,0,0,0,50,54.88a10.24,10.24,0,0,0-6.28,1.95,15.64,15.64,0,0,1-5,2.25,16,16,0,0,1,5,2.24,10.18,10.18,0,0,0,6.28,2,10.18,10.18,0,0,0,6.28-2A15.86,15.86,0,0,1,61.3,59.08Z"/><path class="cls-1" d="M65,54.88a10.24,10.24,0,0,0,6.28-2A15.34,15.34,0,0,1,77,50.53a15.3,15.3,0,0,1-5.72-2.39,11.07,11.07,0,0,0-12.55,0A15.17,15.17,0,0,1,53,50.53a15.34,15.34,0,0,1,5.71,2.39A10.24,10.24,0,0,0,65,54.88Z"/><path class="cls-1" d="M31.38,59.08a15.74,15.74,0,0,1-5-2.25,10.21,10.21,0,0,0-6.27-1.95,10.22,10.22,0,0,0-6.28,1.95,15.74,15.74,0,0,1-5,2.25,16,16,0,0,1,5,2.24,10.15,10.15,0,0,0,6.27,2,10.18,10.18,0,0,0,6.28-2A16,16,0,0,1,31.38,59.08Z"/><path class="cls-1" d="M35,63.28a10.18,10.18,0,0,0-6.28,2,15.34,15.34,0,0,1-5.71,2.39A15.3,15.3,0,0,1,28.77,70,10.15,10.15,0,0,0,35,72a10.18,10.18,0,0,0,6.28-2A15.18,15.18,0,0,1,47,67.63a15.34,15.34,0,0,1-5.71-2.39A10.18,10.18,0,0,0,35,63.28Z"/><path class="cls-1" d="M65,63.28a10.18,10.18,0,0,0-6.28,2A15.34,15.34,0,0,1,53,67.63,15.18,15.18,0,0,1,58.68,70a11,11,0,0,0,12.56,0A15.18,15.18,0,0,1,77,67.63a15.46,15.46,0,0,1-5.72-2.39A10.15,10.15,0,0,0,65,63.28Z"/><path class="cls-1" d="M86.19,56.83a10.21,10.21,0,0,0-6.27-1.95,9.88,9.88,0,0,0-3.81.64l-.16.06c-.22.09-.43.19-.63.29l-.19.1-.6.33-.16.09-.73.44a15.74,15.74,0,0,1-5,2.25,16,16,0,0,1,5,2.24l.73.45.16.09.6.33.18.09c.21.11.42.2.64.29l.16.07c.27.11.55.2.85.29h0a11.19,11.19,0,0,0,3,.35,10.18,10.18,0,0,0,6.28-2,16,16,0,0,1,5-2.24A15.84,15.84,0,0,1,86.19,56.83Z"/></svg>