<svg id="Layer_1" data-name="Layer 1" xmlns="http://www.w3.org/2000/svg" xmlns:xlink="http://www.w3.org/1999/xlink" viewBox="0 0 100 100"><defs><style>.cls-1{fill:url(#linear-gradient);}.cls-2,.cls-3,.cls-4,.cls-5{fill-rule:evenodd;}.cls-2{fill:url(#linear-gradient-2);}.cls-3{fill:url(#linear-gradient-3);}.cls-4{fill:url(#linear-gradient-5);}.cls-5{fill:url(#linear-gradient-6);}</style><linearGradient id="linear-gradient" x1="41.67" y1="50" x2="58.33" y2="50" gradientUnits="userSpaceOnUse"><stop offset="0" stop-color="#ff7bac" stop-opacity="0.7"/><stop offset="1" stop-color="#ed1e79"/></linearGradient><linearGradient id="linear-gradient-2" x1="30.69" y1="34.58" x2="69.31" y2="34.58" xlink:href="#linear-gradient"/><linearGradient id="linear-gradient-3" x1="30.69" y1="20.42" x2="69.31" y2="20.42" xlink:href="#linear-gradient"/><linearGradient id="linear-gradient-5" x1="30.69" y1="65.42" x2="69.31" y2="65.42" xlink:href="#linear-gradient"/><linearGradient id="linear-gradient-6" x1="30.69" y1="79.58" x2="69.31" y2="79.58" xlink:href="#linear-gradient"/></defs><title>Artboard 2</title><circle class="cls-1" cx="50" cy="50" r="8.33"/><path class="cls-2" d="M69.31,41.67a20.24,20.24,0,0,0-38.62,0Z"/><path class="cls-3" d="M69.31,27.5a20.24,20.24,0,0,0-38.62,0Z"/><circle class="cls-1" cx="50" cy="50" r="8.33"/><path class="cls-4" d="M30.69,58.33a20.24,20.24,0,0,0,38.62,0Z"/><path class="cls-5" d="M30.69,72.5a20.24,20.24,0,0,0,38.62,0Z"/></svg>